HIERARCHY
ROOT RootJoint
{
    OFFSET   0.000000   0.000000   0.000000
    CHANNELS 6 Xposition Yposition Zposition Xrotation Yrotation Zrotation
    JOINT pelvis_lowerback
    {
        OFFSET   0.000000   0.093605   0.000000
        CHANNELS 3 Xrotation Yrotation Zrotation
        JOINT lowerback_torso
        {
            OFFSET   0.000000   0.100000   0.000000
            CHANNELS 3 Xrotation Yrotation Zrotation
            JOINT torso_head
            {
                OFFSET   0.000000   0.282350   0.000000
                CHANNELS 3 Xrotation Yrotation Zrotation
                End Site
                {
                    OFFSET   0.000000   0.192650   0.000000
                }
            }
            JOINT rTorso_Clavicle
            {
                OFFSET  -0.001000   0.157500   0.000000
                CHANNELS 3 Xrotation Yrotation Zrotation
                JOINT rShoulder
                {
                    OFFSET  -0.117647   0.000000   0.000000
                    CHANNELS 3 Xrotation Yrotation Zrotation
                    JOINT rElbow
                    {
                        OFFSET  -0.245000   0.000000   0.000000
                        CHANNELS 3 Xrotation Yrotation Zrotation
                        JOINT rWrist
                        {
                            OFFSET  -0.240000   0.000000   0.000000
                            CHANNELS 3 Xrotation Yrotation Zrotation
                            End Site
                            {
                                OFFSET  -0.116353  -0.002500   0.000000
                            }
                        }
                    }
                }
            }
            JOINT lTorso_Clavicle
            {
                OFFSET   0.001000   0.157500   0.000000
                CHANNELS 3 Xrotation Yrotation Zrotation
                JOINT lShoulder
                {
                    OFFSET   0.117647   0.000000   0.000000
                    CHANNELS 3 Xrotation Yrotation Zrotation
                    JOINT lElbow
                    {
                        OFFSET   0.245000   0.000000   0.000000
                        CHANNELS 3 Xrotation Yrotation Zrotation
                        JOINT lWrist
                        {
                            OFFSET   0.240000   0.000000   0.000000
                            CHANNELS 3 Xrotation Yrotation Zrotation
                            End Site
                            {
                                OFFSET   0.116353  -0.002500   0.000000
                            }
                        }
                    }
                }
            }
        }
    }
    JOINT rHip
    {
        OFFSET  -0.100000  -0.051395   0.000000
        CHANNELS 3 Xrotation Yrotation Zrotation
        JOINT rKnee
        {
            OFFSET   0.000000  -0.410000   0.000000
            CHANNELS 3 Xrotation Yrotation Zrotation
            JOINT rAnkle
            {
                OFFSET   0.000000  -0.390000   0.000000
                CHANNELS 3 Xrotation Yrotation Zrotation
                JOINT rToeJoint
                {
                    OFFSET   0.000000  -0.050000   0.130000
                    CHANNELS 3 Xrotation Yrotation Zrotation
                    End Site
                    {
                        OFFSET  -0.010000   0.002000   0.060000
                    }
                }
            }
        }
    }
    JOINT lHip
    {
        OFFSET   0.100000  -0.051395   0.000000
        CHANNELS 3 Xrotation Yrotation Zrotation
        JOINT lKnee
        {
            OFFSET   0.000000  -0.410000   0.000000
            CHANNELS 3 Xrotation Yrotation Zrotation
            JOINT lAnkle
            {
                OFFSET   0.000000  -0.390000   0.000000
                CHANNELS 3 Xrotation Yrotation Zrotation
                JOINT lToeJoint
                {
                    OFFSET   0.000000  -0.050000   0.130000
                    CHANNELS 3 Xrotation Yrotation Zrotation
                    End Site
                    {
                        OFFSET   0.010000   0.002000   0.060000
                    }
                }
            }
        }
    }
}
MOTION
Frames: 10
Frame Time:   0.008333
 -2.366219   0.929233   3.988474  -2.193752  -9.085841  -2.737981  10.843421  -0.378488   0.291638  -0.035138  -1.009835   1.145418  -2.432313  -0.060665   0.520726   2.655456   3.595990   6.276302  15.226099  15.555810  48.039791  -0.000472  28.007017  -0.000037   7.228157   3.858648  -1.926878   3.659952  -7.128467  -6.550401   9.124618 -14.848860 -41.873036   0.000036 -36.444579   0.001062   2.930049  -4.732972   4.253708 -19.166263  -5.065253  -1.760505  44.191065   0.019448   0.034738  -6.472395  -5.606074   6.787197   1.598718  -0.012422  -0.009027 -16.780244   4.920357   7.038980  40.567181   0.020737   0.017202   8.808695   5.966930  -2.465608 -42.410134  -0.023818  -0.004359
 -2.367026   0.940554   3.989341  -1.782602  -9.435590  -2.992306   9.953684  -0.339659   0.686596  -0.041260  -1.077293   1.135800  -2.189281  -0.149411   0.387740   3.080596   3.470105   6.000822  16.075264  15.899777  48.081531   0.000140  28.142168  -0.000478   7.225936   3.707192  -1.950354   3.999769  -6.921525  -6.602815   9.722149 -15.167874 -41.855826   0.000536 -36.563762   0.001776   2.946737  -4.723349   4.398036 -18.712259  -5.488269  -1.480054  42.680204   0.018181   0.035970  -5.122881  -5.595774   7.287710   2.117172  -0.012986  -0.010116 -16.140677   5.362562   7.463849  37.823288   0.016873   0.011412  12.191506   5.841310  -3.265365 -40.744706  -0.013508   0.003993
 -2.367693   0.951327   3.989926  -1.377777  -9.751419  -3.189393   9.150663  -0.307873   1.067098  -0.033856  -1.151410   1.110452  -1.968142  -0.231864   0.258335   3.488531   3.353772   5.736693  16.878730  16.223639  48.119729   0.000669  28.271613  -0.000857   7.237034   3.605669  -1.916046   4.313236  -6.749281  -6.677783  10.273870 -15.485393 -41.856900   0.000999 -36.684573   0.002369   2.972782  -4.764934   4.488040 -18.289359  -5.875347  -1.269756  41.180943   0.016466   0.036580  -3.870759  -5.578292   7.754207   2.567542  -0.012837  -0.010402 -15.608861   5.824948   7.826789  35.233346   0.013606   0.006017  15.419665   5.676417  -3.999548 -38.071727  -0.001566   0.014329
 -2.368289   0.961478   3.990286  -0.994962 -10.055572  -3.362857   8.427980  -0.281268   1.437268  -0.005526  -1.222448   1.087303  -1.758632  -0.308625   0.139159   3.871073   3.244167   5.488550  17.631647  16.526065  48.151991   0.001087  28.392185  -0.001131   7.249142   3.515074  -1.861641   4.604898  -6.597063  -6.764430  10.785830 -15.790936 -41.868754   0.001383 -36.801586   0.002817   2.999960  -4.832739   4.543441 -17.897838  -6.228602  -1.085127  39.764117   0.014585   0.036345  -2.703810  -5.552576   8.189430   2.976246  -0.012345  -0.010273 -15.146270   6.264685   8.159584  32.779189   0.011481   0.002047  18.473453   5.481075  -4.672022 -34.730987   0.010770   0.022541
 -2.368843   0.970960   3.990463  -0.638115 -10.358825  -3.521923   7.776989  -0.257955   1.794612   0.041635  -1.287760   1.069981  -1.559331  -0.380365   0.029949   4.229094   3.140615   5.257357  18.336351  16.808498  48.179487   0.001402  28.504386  -0.001308   7.261133   3.427986  -1.799421   4.878941  -6.457785  -6.855101  11.263967 -16.079886 -41.885539   0.001673 -36.912381   0.003124   3.026857  -4.909684   4.576302 -17.534468  -6.553999  -0.914728  38.441154   0.012756   0.035501  -1.615553  -5.520191   8.595407   3.348159  -0.011659  -0.009907 -14.740885   6.675624   8.474324  30.456352   0.010280  -0.000514  21.348743   5.266181  -5.286474 -30.922614   0.022444   0.027112
 -2.369368   0.979736   3.990488  -0.308629 -10.667722  -3.669058   7.189646  -0.236275   2.136630   0.104241  -1.346309   1.058152  -1.369971  -0.447502  -0.070446   4.564363   3.042476   5.042700  18.995911  17.072170  48.203351   0.001625  28.608748  -0.001403   7.272831   3.343055  -1.732531   5.137894  -6.327510  -6.945205  11.712281 -16.350321 -41.903954   0.001870 -37.015915   0.003306   3.052774  -4.986104   4.593859 -17.195463  -6.855035  -0.755972  37.209545   0.011082   0.034278  -0.600509  -5.482639   8.973984   3.686948  -0.010873  -0.009413 -14.385918   7.057774   8.776122  28.262460   0.009720  -0.001866  24.049761   5.039304  -5.846732 -26.800961   0.032470   0.027738
 -2.369867   0.987777   3.990404  -0.004855 -10.992912  -3.804915   6.655365  -0.213064   2.462387   0.178164  -1.396223   1.050528  -1.190324  -0.510248  -0.163138   4.878745   2.949042   4.843123  19.613560  17.317993  48.224019   0.001767  28.705692  -0.001428   7.284272   3.259742  -1.661929   5.384454  -6.202713  -7.032663  12.134355 -16.601234 -41.922838   0.001983 -37.111705   0.003382   3.077277  -5.056442   4.599986 -16.879678  -7.133619  -0.608060  36.063450   0.009620   0.032897   0.346301  -5.441205   9.326860   3.995753  -0.010052  -0.008871 -14.065515   7.412632   9.065939  26.214695   0.009574  -0.002100  26.597383   4.803746  -6.355406 -22.593033   0.039427   0.024539
 -2.370272   0.994956   3.989932   0.161985 -11.320993  -3.603746   6.287373  -0.185012   2.253331   0.392498  -1.429114   1.085116  -1.104186  -0.507988  -0.157553   5.009636   2.852400   4.917324  20.223490  17.570443  48.132553   0.001576  28.738036  -0.001254   7.313827   3.130844  -1.616171   5.426162  -6.099599  -7.104897  12.642889 -16.939517 -41.744923   0.002234 -37.241987   0.003812   3.064321  -5.008790   4.616413 -16.651005  -7.283660  -0.867855  35.340625   0.007887   0.029867   0.891484  -5.286639   9.544065   4.040860  -0.008171  -0.007252 -13.855865   7.661977   8.951796  25.302519   0.008407  -0.000495  24.893181   4.720667  -6.651964 -19.747350   0.044444   0.011135
 -2.370695   1.001437   3.989324   0.285734 -11.657806  -3.359192   5.981927  -0.146999   1.986009   0.632629  -1.455698   1.082334  -1.010052  -0.501800  -0.163717   5.117928   2.781454   5.045523  20.774136  17.826259  48.069670   0.001433  28.771074  -0.001119   7.343804   3.002415  -1.557842   5.439874  -6.024073  -7.172273  13.102634 -17.264751 -41.558539   0.002419 -37.367538   0.004092   3.055311  -4.973113   4.667359 -16.429066  -7.405121  -1.172827  34.692814   0.006494   0.027022   1.399342  -5.140937   9.744314   4.069196  -0.006613  -0.005902 -13.660477   7.895314   8.790658  24.584126   0.007327   0.000708  23.266438   4.650632  -6.928252 -17.413481   0.044345   0.000892
 -2.371144   1.007232   3.988627   0.398105 -12.002146  -3.116454   5.709911  -0.107000   1.717229   0.870036  -1.479331   1.064047  -0.916447  -0.495374  -0.176370   5.214213   2.724130   5.189961  21.279645  18.076763  48.025236   0.001331  28.806573  -0.001011   7.374028   2.901989  -1.475335   5.445277  -5.962373  -7.243872  13.526363 -17.574479 -41.384959   0.002557 -37.487873   0.004256   3.048109  -4.955098   4.723994 -16.223166  -7.516867  -1.466627  34.088000   0.005412   0.024477   1.873037  -5.003526   9.929973   4.096597  -0.005363  -0.004817 -13.480367   8.112813   8.636003  23.939176   0.006436   0.001640  21.748999   4.592030  -7.187748 -15.282113   0.042127  -0.007045
